<svg width="66" height="65" viewBox="0 0 66 65" fill="none" xmlns="http://www.w3.org/2000/svg">
<path fill-rule="evenodd" clip-rule="evenodd" d="M11.4299 0C11.6322 0 16.4618 4.67058 32.5436 20.702L42.9108 10.351C48.6001 4.67058 53.4549 0 53.6572 0C53.8595 0 56.5145 2.47414 59.5488 5.5037C62.5578 8.50802 65.0358 11.0831 65.0358 11.2346C65.0358 11.3861 60.3327 16.1829 44.1751 32.3153L54.5928 42.7168C60.3327 48.4478 65.0358 53.2446 65.0358 53.396C65.0358 53.5475 62.5578 56.1226 59.5235 59.1522C56.5145 62.1565 53.8595 64.6307 53.6572 64.6307C53.4549 64.6307 48.6254 59.9601 32.5436 43.9287L22.1764 54.2797C16.4618 59.9853 11.6322 64.6307 11.4299 64.6307C11.2277 64.6307 8.57265 62.1565 5.53835 59.127C2.52934 56.1226 0.0513301 53.5475 0.0513301 53.396C0.0513301 53.2446 4.75449 48.4478 20.9121 32.3153L10.4944 21.8886C4.75449 16.1829 0.0260463 11.3861 0.000760533 11.2346C-0.0498111 11.1084 2.4282 8.50802 5.48778 5.5037C8.54736 2.47414 11.2277 0 11.4299 0Z" fill="#0B0D13"/>
</svg>
