<svg width="16" height="21" viewBox="0 0 16 21" fill="none" xmlns="http://www.w3.org/2000/svg">
<path d="M1 1.12336V19.8766M15 4.36307V16.6369C15 18.1912 15 18.9683 14.6786 19.3892C14.3987 19.7556 13.9718 19.9789 13.5124 19.9991C12.9849 20.0223 12.3512 19.5767 11.0838 18.6854L3.81368 13.5727C2.34383 12.539 1.60891 12.0222 1.34992 11.3783C1.12331 10.8149 1.12331 10.1851 1.34992 9.62174C1.60891 8.97785 2.34383 8.46101 3.81369 7.42734L11.0838 2.31463C12.3512 1.42332 12.9849 0.977671 13.5124 1.00086C13.9718 1.02105 14.3987 1.24436 14.6786 1.61084C15 2.03169 15 2.80881 15 4.36307Z" stroke="#514F4F" stroke-width="2" stroke-linecap="round" stroke-linejoin="round"/>
</svg>
