<svg width="25" height="33" viewBox="0 0 25 33" fill="none" xmlns="http://www.w3.org/2000/svg">
<path d="M2 26.2884V6.71162C2 4.47837 2 3.36175 2.48808 2.78824C2.91256 2.28947 3.55623 1.99931 4.23664 2C5.01901 2.00079 5.94864 2.69834 7.80791 4.09344L20.853 13.8818C22.0457 14.7768 22.6421 15.2243 22.858 15.7649C23.0473 16.2389 23.0473 16.7611 22.858 17.2351C22.6421 17.7757 22.0457 18.2232 20.853 19.1182L7.8079 28.9066C5.94864 30.3017 5.01901 30.9992 4.23664 31C3.55623 31.0007 2.91256 30.7105 2.48808 30.2118C2 29.6382 2 28.5216 2 26.2884Z" stroke="white" stroke-width="3" stroke-linecap="round" stroke-linejoin="round"/>
</svg>
