<svg width="31" height="31" viewBox="0 0 31 31" fill="none" xmlns="http://www.w3.org/2000/svg">
<path d="M26.7778 13.8889H4.22222M26.7778 13.8889C28.5574 13.8889 30 15.3315 30 17.1111V26.7778C30 28.5574 28.5574 30 26.7778 30H4.22222C2.44264 30 1 28.5574 1 26.7778V17.1111C1 15.3315 2.44264 13.8889 4.22222 13.8889M26.7778 13.8889V10.6667C26.7778 8.88708 25.3351 7.44444 23.5556 7.44444M4.22222 13.8889V10.6667C4.22222 8.88708 5.66486 7.44444 7.44444 7.44444M7.44444 7.44444V4.22222C7.44444 2.44264 8.88708 1 10.6667 1H20.3333C22.1129 1 23.5556 2.44264 23.5556 4.22222V7.44444M7.44444 7.44444H23.5556" stroke="white" stroke-width="2" stroke-linecap="round" stroke-linejoin="round"/>
</svg>
